<?xml version="1.0" encoding="utf-8"?>
<!-- Generator: Adobe Illustrator 25.4.1, SVG Export Plug-In . SVG Version: 6.00 Build 0)  -->
<svg version="1.1" id="Layer_1" xmlns="http://www.w3.org/2000/svg" xmlns:xlink="http://www.w3.org/1999/xlink" x="0px" y="0px"
	 width="423.6px" height="105.6px" viewBox="0 0 423.6 105.6" style="enable-background:new 0 0 423.6 105.6;" xml:space="preserve"
	>
<g>
	<path d="M84.2,90.9c-5.6-1-15.6-7.4-15.6-10.8c0-8.9,14.9-44.1,21-54.8c-8.9,7.4-19.2,20.5-27.3,33.9c-4.1,6.7-12.8,22.6-12.8,28.2
		c0,0.6,0.1,1.1,0.2,1.2c-5.6-1-14.4-7.4-14.4-10.8c0-3.1,9.1-34.8,19.1-52.7C47.9,29.5,35,46.1,27.3,59.4
		c-2.4,4-12.4,21.6-12.4,27.3c0,0.5,0,1.1,0.1,1.5c9.5,10.2,23,16.5,38,16.5c28.7,0,51.9-23.2,51.9-51.9c0-6.4-1.2-12.6-3.3-18.2
		C93.7,53.1,80.5,88.1,84.2,90.9z"/>
	<path d="M27.1,17.8c4.5,0,12,5,11.9,6.1c-1.9,0.1-8.6,14.1-14.4,29c9.5-15.4,23.2-33.4,30.5-35.8c4.5-1.5,14.1,5.2,14.8,7.9
		C64.8,35.3,60,47.6,56.2,58.6c8.1-14.8,24.4-37.2,33.9-42C80.7,6.9,67.5,0.9,52.9,0.9C24.2,0.9,1,24.1,1,52.8
		c0,5.6,0.9,11,2.5,16.1C7.9,54.6,17.9,28.5,25,18.7C25.4,18.1,26.3,17.8,27.1,17.8z"/>
	<path d="M178.9,43.8c-0.7-1.2-1.5-2.3-2.5-3.2c-1-0.9-2.2-1.6-3.6-2.2c-1.4-0.5-3-0.8-4.7-0.8c-2.3,0-4.5,0.5-6.4,1.5
		c-2,1-3.6,2.5-4.9,4.5c-2.3-4-5.5-6-9.7-6c-3.7,0-6.6,1.4-8.8,4.2v-3.5H130v34.3h8.4V53.7c0-2.4,0.7-4.4,2-6
		c1.3-1.6,3.1-2.4,5.3-2.4c1,0,1.9,0.2,2.7,0.6c0.7,0.4,1.3,0.9,1.7,1.7c0.4,0.7,0.7,1.5,0.8,2.4c0.2,0.9,0.3,1.8,0.3,3v19.7h8.5
		V53.7c0-2.4,0.6-4.4,1.9-6c1.3-1.6,3-2.4,5.2-2.4c3.7,0,5.5,2.6,5.5,7.7v19.6h8.5V52c0-1.5-0.2-2.9-0.5-4.3
		C180.1,46.3,179.6,45,178.9,43.8z"/>
	<rect x="189.9" y="38.3" width="8.2" height="34.3"/>
	<path d="M194,24c-1.2,0-2.3,0.4-3.2,1.2c-0.9,0.8-1.3,1.8-1.3,2.9c0,1.2,0.4,2.1,1.3,2.9c0.9,0.8,1.9,1.2,3.2,1.2
		c0.8,0,1.6-0.2,2.2-0.6c0.7-0.4,1.2-0.9,1.6-1.5c0.4-0.6,0.6-1.3,0.6-2.1c0-1.1-0.4-2.1-1.3-2.9C196.3,24.4,195.2,24,194,24z"/>
	<path d="M237.1,43.8c-0.6-1.3-1.4-2.3-2.4-3.3c-0.9-0.9-2.1-1.6-3.5-2.2c-1.4-0.5-3-0.8-4.7-0.8c-1.2,0-2.4,0.2-3.5,0.5
		c-1.2,0.3-2.3,0.8-3.5,1.5c-1.2,0.7-2.2,1.6-3.1,2.7v-4h-8.2v34.3h8.2V53.8c0-2.9,0.7-5,2-6.4c1.4-1.4,3.3-2.1,5.7-2.1
		c2.1,0,3.7,0.7,4.8,2.1c1.1,1.4,1.7,3.3,1.7,5.6v19.5h8.2V52c0-1.5-0.1-2.9-0.4-4.3C238.2,46.4,237.7,45.1,237.1,43.8z"/>
	<path d="M276.4,45.5c-0.8-1.5-1.8-2.9-2.9-4.1c-1.2-1.2-2.7-2.1-4.6-2.8c-1.9-0.7-3.9-1.1-6.3-1.1c-1.6,0-3.1,0.2-4.6,0.5
		c-1.4,0.3-2.7,0.8-3.8,1.5c-1.1,0.6-2.1,1.4-3.1,2.3c-0.9,0.9-1.7,1.8-2.4,2.9c-0.6,1-1.2,2.2-1.7,3.4s-0.8,2.4-1,3.7
		c-0.2,1.2-0.3,2.5-0.3,3.8c0,1.3,0.1,2.6,0.3,3.9c0.2,1.3,0.6,2.5,1.1,3.7c0.5,1.2,1.1,2.3,1.7,3.3c0.7,1,1.5,2,2.5,2.8
		c1,0.8,2,1.6,3.2,2.2c1.2,0.6,2.5,1.1,3.9,1.4c1.5,0.3,3,0.5,4.7,0.5c5.7,0,10.3-2.1,14.1-6.2l-5.8-5c-2.2,2.4-4.9,3.6-8.2,3.6
		c-4.9,0-7.8-2.5-8.6-7.5h23.6c0.2-0.6,0.3-1.7,0.3-3.3c0-1.6-0.2-3.2-0.5-4.7C277.7,48.6,277.2,47,276.4,45.5z M254.7,52.1
		c0.9-5,3.5-7.5,7.9-7.5c2.2,0,3.9,0.6,5.3,1.9c1.3,1.3,2.1,3.2,2.4,5.6H254.7z"/>
	<polygon points="316.2,59.7 309.7,38.3 302.6,38.3 296,59.8 290.2,38.3 281.3,38.3 291.8,72.7 299.4,72.7 306.2,50.2 312.9,72.6 
		320.4,72.6 331,38.3 322.1,38.3 	"/>
	<path d="M363.8,45.5c-0.8-1.5-1.8-2.9-2.9-4.1c-1.2-1.2-2.7-2.1-4.6-2.8c-1.9-0.7-3.9-1.1-6.3-1.1c-1.6,0-3.1,0.2-4.6,0.5
		c-1.4,0.3-2.7,0.8-3.8,1.5c-1.1,0.6-2.1,1.4-3.1,2.3c-0.9,0.9-1.7,1.8-2.4,2.9c-0.6,1-1.2,2.2-1.7,3.4c-0.5,1.2-0.8,2.4-1,3.7
		c-0.2,1.2-0.3,2.5-0.3,3.8c0,1.3,0.1,2.6,0.3,3.9c0.2,1.3,0.6,2.5,1.1,3.7c0.5,1.2,1.1,2.3,1.7,3.3c0.7,1,1.5,2,2.5,2.8
		c1,0.8,2,1.6,3.2,2.2c1.2,0.6,2.5,1.1,3.9,1.4c1.5,0.3,3,0.5,4.7,0.5c5.7,0,10.3-2.1,14.1-6.2l-5.8-5c-2.2,2.4-4.9,3.6-8.2,3.6
		c-4.9,0-7.8-2.5-8.6-7.5h23.6c0.2-0.6,0.3-1.7,0.3-3.3c0-1.6-0.2-3.2-0.5-4.7C365.1,48.6,364.6,47,363.8,45.5z M342.1,52.1
		c0.9-5,3.5-7.5,7.9-7.5c2.2,0,3.9,0.6,5.3,1.9s2.1,3.2,2.4,5.6H342.1z"/>
	<path d="M403.7,45c-0.8-1.5-1.8-2.8-3-3.9c-1.2-1.1-2.5-2-4.1-2.6c-1.6-0.6-3.3-0.9-5.2-0.9c-1.9,0-3.7,0.3-5.4,1
		c-1.7,0.7-3.1,1.7-4.2,3.1V24H373v48.5h8.7v-3.4c1.1,1.4,2.6,2.4,4.3,3.1s3.5,1,5.5,1c1.5,0,3-0.2,4.4-0.7c1.4-0.4,2.6-1.1,3.6-1.8
		c1.1-0.8,2-1.7,2.9-2.8c0.8-1.1,1.5-2.3,2.1-3.6c0.5-1.3,1-2.7,1.3-4.2c0.3-1.5,0.4-3,0.4-4.6c0-1.9-0.2-3.8-0.6-5.5
		C405.1,48.1,404.5,46.5,403.7,45z M396.9,60.6c-0.6,1.5-1.5,2.7-2.8,3.6c-1.3,0.9-2.9,1.4-4.7,1.4c-1.9,0-3.5-0.5-4.8-1.4
		c-1.3-0.9-2.2-2.1-2.8-3.6c-0.6-1.5-0.9-3.2-0.9-5.2c0-2,0.3-3.7,0.9-5.2c0.6-1.5,1.5-2.7,2.8-3.7s2.9-1.4,4.8-1.4
		c1.4,0,2.6,0.3,3.7,0.8c1.1,0.5,2,1.3,2.6,2.2c0.7,0.9,1.2,2,1.5,3.3c0.3,1.2,0.5,2.6,0.5,4C397.7,57.4,397.5,59.1,396.9,60.6z"/>
	<path d="M421.3,66c-0.9-0.8-1.9-1.2-3.2-1.2c-1.2,0-2.3,0.4-3.2,1.2c-0.9,0.8-1.3,1.8-1.3,2.9c0,1.2,0.4,2.1,1.3,2.9
		c0.9,0.8,1.9,1.2,3.2,1.2c0.8,0,1.6-0.2,2.2-0.6c0.7-0.4,1.2-0.9,1.6-1.5c0.4-0.6,0.6-1.3,0.6-2.1C422.6,67.8,422.2,66.8,421.3,66z
		"/>
</g>
</svg>
